<?xml version="1.0" encoding="UTF-8" standalone="no"?>
<svg
   width="200mm"
   height="21mm"
   viewBox="0 0 200 21"
   version="1.1"
   id="svg1729"
   xmlns:xlink="http://www.w3.org/1999/xlink"
   xmlns="http://www.w3.org/2000/svg"
   xmlns:svg="http://www.w3.org/2000/svg">
  <defs
     id="defs1726">
    <linearGradient id="linearGradient5052">
      <stop
         style="stop-color:#dc5b00;stop-opacity:1;"
         offset="0"
         id="stop5048" />
      <stop
         style="stop-color:#dc5b00;stop-opacity:1;"
         offset="0.74369127"
         id="stop5120" />
      <stop
         style="stop-color:#ffffff;stop-opacity:1;"
         offset="0.86526513"
         id="stop5050" />
      <stop
         style="stop-color:#dc5b00;stop-opacity:1;"
         offset="1"
         id="stop5122">
      </stop>
    </linearGradient>
    <linearGradient
       xlink:href="#linearGradient5052"
       id="linearGradient5054"
       x1="-200"
       y1="0"
       x2="400"
       y2="0"
       gradientUnits="userSpaceOnUse">
       <animate 
         attributeName="x2" 
         begin="mask.mouseover" 
         dur="500ms" 
         from="0" 
         to="400" 
         restart="always" 
       />
    </linearGradient>
  </defs>
   <g id="g5046" style="fill-opacity:1;fill:url(#linearGradient5054)">
      <path
         d="M 8.7988219,7.1955319 H 0.85991529 V 8.6687311 H 8.7988219 Z m 0,3.8876091 H 0.85991529 V 12.55634 H 8.7988219 Z"
         id="path4040" />
      <path
         d="m 17.904019,14.991211 c -1.86196,0 -3.212393,-1.207205 -3.212393,-4.09222 0,-2.8440929 1.329972,-4.2149866 3.191932,-4.2149866 0.961672,0 1.86196,0.3273776 2.78271,0.9412106 L 21.505173,6.4998545 C 20.502579,5.6609494 19.295374,5.2312663 17.904019,5.2312663 c -3.212393,0 -5.074353,2.4348709 -5.074353,5.6677247 0,3.376081 1.841499,5.565419 5.074353,5.565419 1.248127,0 2.700865,-0.491066 3.621615,-1.289049 L 20.70719,14.05 c -0.818444,0.55245 -1.718733,0.941211 -2.803171,0.941211 z"
         id="path4042" />
      <path
         d="M 27.917971,1.1185853 H 22.88454 V 2.489479 h 3.314698 v 11.008072 c 0,1.86196 1.28905,2.966859 3.191932,2.966859 1.104899,0 1.984727,-0.245533 2.557637,-0.55245 l -0.450144,-1.248127 c -0.593372,0.225072 -1.166282,0.3683 -1.800577,0.3683 -1.043516,0 -1.780115,-0.388761 -1.780115,-1.452738 z"
         id="path4044" />
      <path
         d="m 38.484371,0.42290791 c -0.736599,0 -1.227666,0.51152749 -1.227666,1.20720489 0,0.6956774 0.491067,1.2072049 1.227666,1.2072049 0.757061,0 1.268588,-0.5115275 1.268588,-1.2072049 0,-0.6956774 -0.511527,-1.20720489 -1.268588,-1.20720489 z M 39.855265,5.4563384 H 34.92414 v 1.3708937 h 3.212393 v 8.0412119 h -3.314699 v 1.370894 h 8.061674 v -1.370894 h -3.028243 z"
         id="path4046" />
      <path
         d="m 49.971521,14.991211 c -1.86196,0 -3.212393,-1.207205 -3.212393,-4.09222 0,-2.8440929 1.329972,-4.2149866 3.191932,-4.2149866 0.961672,0 1.86196,0.3273776 2.78271,0.9412106 L 53.572675,6.4998545 C 52.570081,5.6609494 51.362876,5.2312663 49.971521,5.2312663 c -3.212393,0 -5.074353,2.4348709 -5.074353,5.6677247 0,3.376081 1.841499,5.565419 5.074353,5.565419 1.248127,0 2.700865,-0.491066 3.621615,-1.289049 L 52.774692,14.05 c -0.818444,0.55245 -1.718733,0.941211 -2.803171,0.941211 z"
         id="path4048" />
      <path
         d="m 57.876564,0.9139743 -1.718732,0.204611 V 16.239338 h 1.718732 z m 7.181846,4.5423641 h -2.209799 l -4.787897,4.8902026 5.299425,5.892797 h 2.271182 l -5.40173,-5.913258 z"
         id="path4050" />
      <path
         d="M 76.312024,16.239338 78.173984,5.4563384 H 76.516635 L 75.12528,15.175361 73.508853,6.8272321 H 71.483204 L 69.764472,15.175361 68.373117,5.4563384 h -1.739194 l 1.943805,10.7829996 h 2.373488 l 1.514121,-7.8979845 1.411816,7.8979845 z"
         id="path4052" />
      <path
         d="m 84.701079,5.2312663 c -3.028242,0 -4.66513,2.3121043 -4.66513,5.6268027 0,3.396542 1.616427,5.606341 4.644669,5.606341 3.007782,0 4.64467,-2.312104 4.64467,-5.626802 0,-3.3965429 -1.595966,-5.6063417 -4.624209,-5.6063417 z m 0,1.4118159 c 1.841499,0 2.762249,1.3504326 2.762249,4.1945258 0,2.885015 -0.92075,4.214986 -2.78271,4.214986 -1.86196,0 -2.782709,-1.329971 -2.782709,-4.194525 0,-2.8645542 0.94121,-4.2149868 2.80317,-4.2149868 z"
         id="path4054" />
      <path
         d="m 100.14922,5.2312663 c -1.943802,0 -3.048702,1.023055 -3.867146,2.7827096 L 95.954697,5.4563384 h -2.987321 v 1.3299715 h 1.698272 v 8.1230561 h -1.698272 v 1.329972 h 5.606342 V 14.909366 H 96.38438 v -4.542364 c 0.695677,-2.3734872 1.882421,-3.560231 3.53977,-3.560231 h 0.10231 v 2.3121043 h 1.39135 l 0.24553,-3.6625369 c -0.4706,-0.1227666 -0.92075,-0.2250721 -1.51412,-0.2250721 z"
         id="path4056" />
      <path
         d="m 106.98323,0.9139743 -1.71873,0.204611 V 16.239338 h 1.71873 z m 7.18185,4.5423641 h -2.2098 l -4.7879,4.8902026 5.29943,5.892797 h 2.27118 l -5.40173,-5.913258 z"
         id="path4058" />
      <path
         d="m 121.53109,5.2312663 c -3.02824,0 -4.66513,2.3121043 -4.66513,5.6268027 0,3.396542 1.61643,5.606341 4.64467,5.606341 3.00778,0 4.64467,-2.312104 4.64467,-5.626802 0,-3.3965429 -1.59597,-5.6063417 -4.62421,-5.6063417 z m 0,1.4118159 c 1.8415,0 2.76225,1.3504326 2.76225,4.1945258 0,2.885015 -0.92075,4.214986 -2.78271,4.214986 -1.86196,0 -2.78271,-1.329971 -2.78271,-4.194525 0,-2.8645542 0.94121,-4.2149868 2.80317,-4.2149868 z"
         id="path4060" />
      <path
         d="m 136.97922,5.2312663 c -1.94381,0 -3.04871,1.023055 -3.86715,2.7827096 l -0.32738,-2.5576375 h -2.98732 v 1.3299715 h 1.69827 v 8.1230561 h -1.69827 v 1.329972 h 5.60634 v -1.329972 h -2.18934 v -4.542364 c 0.69568,-2.3734872 1.88243,-3.560231 3.53977,-3.560231 h 0.10231 v 2.3121043 h 1.39135 l 0.24554,-3.6625369 c -0.47061,-0.1227666 -0.92075,-0.2250721 -1.51412,-0.2250721 z"
         id="path4062" />
      <path
         d="M 149.70603,13.886311 V 8.7096533 c 0,-2.1279544 -1.35043,-3.478387 -4.03083,-3.478387 -1.06398,0 -2.2098,0.204611 -3.53977,0.6752163 l 0.4706,1.3095104 c 1.1049,-0.3887609 2.08703,-0.5524497 2.80317,-0.5524497 1.59597,0 2.55764,0.5729108 2.55764,2.1484155 V 9.691786 h -1.59597 c -3.25331,0 -5.03343,1.248127 -5.03343,3.457926 0,2.005188 1.30951,3.314698 3.47839,3.314698 1.39135,0 2.59856,-0.511527 3.37608,-1.514121 0.28646,0.982132 1.04352,1.411816 1.96427,1.534582 l 0.42968,-1.227666 c -0.61383,-0.18415 -0.87983,-0.511527 -0.87983,-1.370894 z m -4.46052,1.28905 c -1.41181,0 -2.06657,-0.695678 -2.06657,-2.04611 0,-1.391355 0.85937,-2.250721 3.23286,-2.250721 h 1.55504 v 2.762248 c -0.63429,0.961672 -1.65735,1.534583 -2.72133,1.534583 z"
         id="path4064" />
      <path
         d="m 154.24841,16.239338 h 1.71873 V 8.4027368 c 0.57291,-0.8593662 1.65735,-1.8005768 2.92594,-1.8005768 1.61643,0 1.8415,0.8798273 1.8415,3.089626 v 6.547552 h 1.71873 V 8.4231979 c 0,-2.0051878 -0.92075,-3.1919316 -3.02824,-3.1919316 -1.26859,0 -2.70087,0.6342941 -3.56023,1.7391935 l -0.14323,-1.5141214 h -1.4732 z"
         id="path4066" />
      <path
         d="m 175.30289,4.3309779 c -1.26858,0.5319886 -2.20979,0.9002884 -4.91066,0.9002884 -2.55764,0 -4.29683,1.5550436 -4.29683,3.7443813 0,1.3913544 0.57291,2.3325654 1.80058,2.9668594 -0.77753,0.511527 -1.18675,1.207205 -1.18675,1.882421 0,1.084438 0.83891,2.04611 2.72133,2.04611 h 1.92334 c 1.3709,0 2.41441,0.511528 2.41441,1.534583 0,1.166282 -1.04351,1.780115 -3.39654,1.780115 -2.41441,0 -2.98732,-0.593372 -2.98732,-1.86196 h -1.55505 c 0,2.189338 1.1049,3.253315 4.54237,3.253315 3.27377,0 5.13573,-1.166283 5.13573,-3.273776 0,-1.67781 -1.63688,-2.925937 -3.80576,-2.925937 h -1.9438 c -1.1049,0 -1.43228,-0.409222 -1.43228,-0.92075 0,-0.388761 0.24553,-0.797983 0.55245,-1.043516 0.4706,0.163689 0.90029,0.225072 1.61643,0.225072 2.55763,0 4.05129,-1.534582 4.05129,-3.6625364 0,-1.227666 -0.61383,-2.1484155 -1.88242,-2.7213263 1.20721,0 2.25072,-0.020461 3.15101,-0.3069165 z m -4.93112,2.1688766 c 1.59596,0 2.39395,0.8389051 2.39395,2.455332 0,1.5959655 -0.81845,2.5371765 -2.35303,2.5371765 -1.75965,0 -2.55764,-1.043516 -2.55764,-2.5167154 0,-1.4527381 0.77753,-2.4757931 2.51672,-2.4757931 z"
         id="path4068" />
      <path
         d="m 180.17263,11.451441 h 7.24323 c 0.0205,-0.225072 0.0409,-0.55245 0.0409,-0.92075 0,-3.2737758 -1.67781,-5.2994247 -4.39913,-5.2994247 -2.86456,0 -4.68559,2.3734876 -4.68559,5.6268027 0,3.35562 1.78011,5.606341 4.93112,5.606341 1.32997,0 2.68041,-0.470605 3.683,-1.248127 l -0.79798,-1.145822 c -0.96168,0.634294 -1.78012,0.961672 -2.88502,0.961672 -1.65735,0 -3.0487,-1.084438 -3.13055,-3.580692 z m 2.90548,-4.8083588 c 1.63689,0 2.65994,1.1867438 2.70086,3.4988478 h -5.60634 c 0.14323,-2.3734873 1.30951,-3.4988478 2.90548,-3.4988478 z"
         id="path4070" />
      <path
         d="m 199.14008,7.1955319 h -7.9389 v 1.4731992 h 7.9389 z m 0,3.8876091 h -7.9389 v 1.473199 h 7.9389 z"
         id="path4072" />
   </g>
   <a xlink:href="/" target="_parent"><rect id="mask" x="0px" y="0px" width="200" height="21" opacity="0"/></a>
</svg>
