<?xml version="1.0" encoding="UTF-8" standalone="no"?>
<svg viewBox="0 0 200 21" version="1.1" xmlns:xlink="http://www.w3.org/1999/xlink" xmlns="http://www.w3.org/2000/svg" xmlns:svg="http://www.w3.org/2000/svg">
	<defs>
		<linearGradient id="linearGradient5052">
			<stop style="stop-color:#dc5b00;stop-opacity:1;" offset="0" />
			<stop style="stop-color:#dc5b00;stop-opacity:1;" offset="0.74369127" />
			<stop style="stop-color:#ffffff;stop-opacity:1;" offset="0.86526513" />
			<stop style="stop-color:#dc5b00;stop-opacity:1;" offset="1" />
		</linearGradient>
		<linearGradient xlink:href="#linearGradient5052" id="linearGradient5054" x1="-200" y1="0" x2="400" y2="0" gradientUnits="userSpaceOnUse">
			<animate id="anim1" begin="0s;anim1.end+1" attributeName="x2" dur="500ms" from="0" to="400" restart="always" repeatCount="1" />
		</linearGradient>
	</defs>
	<g style="fill-opacity:1;fill:url(#linearGradient5054)">
		<path d="m8.8 7.2h-7.94v1.47h7.94zm0 3.89h-7.94v1.47h7.94z" />
		<path d="m17.9 15c-1.86 0-3.21-1.21-3.21-4.09 0-2.84 1.33-4.21 3.19-4.21 0.962 0 1.86 0.327 2.78 0.941l0.839-1.13c-1-0.839-2.21-1.27-3.6-1.27-3.21 0-5.07 2.43-5.07 5.67 0 3.38 1.84 5.57 5.07 5.57 1.25 0 2.7-0.491 3.62-1.29l-0.818-1.13c-0.818 0.552-1.72 0.941-2.8 0.941z" />
		<path d="m27.9 1.12h-5.03v1.37h3.31v11c0 1.86 1.29 2.97 3.19 2.97 1.1 0 1.98-0.246 2.56-0.552l-0.45-1.25c-0.593 0.225-1.17 0.368-1.8 0.368-1.04 0-1.78-0.389-1.78-1.45z" />
		<path d="m38.5 0.423c-0.737 0-1.23 0.512-1.23 1.21s0.491 1.21 1.23 1.21c0.757 0 1.27-0.512 1.27-1.21s-0.512-1.21-1.27-1.21zm1.37 5.03h-4.93v1.37h3.21v8.04h-3.31v1.37h8.06v-1.37h-3.03z" />
		<path d="m50 15c-1.86 0-3.21-1.21-3.21-4.09 0-2.84 1.33-4.21 3.19-4.21 0.962 0 1.86 0.327 2.78 0.941l0.839-1.13c-1-0.839-2.21-1.27-3.6-1.27-3.21 0-5.07 2.43-5.07 5.67 0 3.38 1.84 5.57 5.07 5.57 1.25 0 2.7-0.491 3.62-1.29l-0.818-1.13c-0.818 0.552-1.72 0.941-2.8 0.941z" />
		<path d="m57.9 0.914-1.72 0.205v15.1h1.72zm7.18 4.54h-2.21l-4.79 4.89 5.3 5.89h2.27l-5.4-5.91z" />
		<path d="m76.3 16.2 1.86-10.8h-1.66l-1.39 9.72-1.62-8.35h-2.03l-1.72 8.35-1.39-9.72h-1.74l1.94 10.8h2.37l1.51-7.9 1.41 7.9z" />
		<path d="m84.7 5.23c-3.03 0-4.67 2.31-4.67 5.63 0 3.4 1.62 5.61 4.64 5.61 3.01 0 4.64-2.31 4.64-5.63 0-3.4-1.6-5.61-4.62-5.61zm0 1.41c1.84 0 2.76 1.35 2.76 4.19 0 2.89-0.921 4.21-2.78 4.21s-2.78-1.33-2.78-4.19c0-2.86 0.941-4.21 2.8-4.21z" />
		<path d="m100 5.23c-1.94 0-3.05 1.02-3.87 2.78l-0.327-2.56h-2.99v1.33h1.7v8.12h-1.7v1.33h5.61v-1.33h-2.19v-4.54c0.696-2.37 1.88-3.56 3.54-3.56h0.102v2.31h1.39l0.246-3.66c-0.471-0.123-0.921-0.225-1.51-0.225z" />
		<path d="m107 0.914-1.72 0.205v15.1h1.72zm7.18 4.54h-2.21l-4.79 4.89 5.3 5.89h2.27l-5.4-5.91z" />
		<path d="m122 5.23c-3.03 0-4.67 2.31-4.67 5.63 0 3.4 1.62 5.61 4.64 5.61 3.01 0 4.64-2.31 4.64-5.63 0-3.4-1.6-5.61-4.62-5.61zm0 1.41c1.84 0 2.76 1.35 2.76 4.19 0 2.89-0.921 4.21-2.78 4.21s-2.78-1.33-2.78-4.19c0-2.86 0.941-4.21 2.8-4.21z" />
		<path d="m137 5.23c-1.94 0-3.05 1.02-3.87 2.78l-0.327-2.56h-2.99v1.33h1.7v8.12h-1.7v1.33h5.61v-1.33h-2.19v-4.54c0.696-2.37 1.88-3.56 3.54-3.56h0.102v2.31h1.39l0.246-3.66c-0.471-0.123-0.921-0.225-1.51-0.225z" />
		<path d="m150 13.9v-5.18c0-2.13-1.35-3.48-4.03-3.48-1.06 0-2.21 0.205-3.54 0.675l0.471 1.31c1.1-0.389 2.09-0.552 2.8-0.552 1.6 0 2.56 0.573 2.56 2.15v0.88h-1.6c-3.25 0-5.03 1.25-5.03 3.46 0 2.01 1.31 3.31 3.48 3.31 1.39 0 2.6-0.512 3.38-1.51 0.286 0.982 1.04 1.41 1.96 1.53l0.43-1.23c-0.614-0.184-0.88-0.512-0.88-1.37zm-4.46 1.29c-1.41 0-2.07-0.696-2.07-2.05 0-1.39 0.859-2.25 3.23-2.25h1.56v2.76c-0.634 0.962-1.66 1.53-2.72 1.53z" />
		<path d="m154 16.2h1.72v-7.84c0.573-0.859 1.66-1.8 2.93-1.8 1.62 0 1.84 0.88 1.84 3.09v6.55h1.72v-7.82c0-2.01-0.921-3.19-3.03-3.19-1.27 0-2.7 0.634-3.56 1.74l-0.143-1.51h-1.47z" />
		<path d="m175 4.33c-1.27 0.532-2.21 0.9-4.91 0.9-2.56 0-4.3 1.56-4.3 3.74 0 1.39 0.573 2.33 1.8 2.97-0.778 0.512-1.19 1.21-1.19 1.88 0 1.08 0.839 2.05 2.72 2.05h1.92c1.37 0 2.41 0.512 2.41 1.53 0 1.17-1.04 1.78-3.4 1.78-2.41 0-2.99-0.593-2.99-1.86h-1.56c0 2.19 1.1 3.25 4.54 3.25 3.27 0 5.14-1.17 5.14-3.27 0-1.68-1.64-2.93-3.81-2.93h-1.94c-1.1 0-1.43-0.409-1.43-0.921 0-0.389 0.246-0.798 0.552-1.04 0.471 0.164 0.9 0.225 1.62 0.225 2.56 0 4.05-1.53 4.05-3.66 0-1.23-0.614-2.15-1.88-2.72 1.21 0 2.25-0.0205 3.15-0.307zm-4.93 2.17c1.6 0 2.39 0.839 2.39 2.46 0 1.6-0.818 2.54-2.35 2.54-1.76 0-2.56-1.04-2.56-2.52 0-1.45 0.778-2.48 2.52-2.48z" />
		<path d="m180 11.5h7.24c0.0205-0.225 0.0409-0.552 0.0409-0.921 0-3.27-1.68-5.3-4.4-5.3-2.86 0-4.69 2.37-4.69 5.63 0 3.36 1.78 5.61 4.93 5.61 1.33 0 2.68-0.471 3.68-1.25l-0.798-1.15c-0.962 0.634-1.78 0.962-2.89 0.962-1.66 0-3.05-1.08-3.13-3.58zm2.91-4.81c1.64 0 2.66 1.19 2.7 3.5h-5.61c0.143-2.37 1.31-3.5 2.91-3.5z" />
		<path d="m199 7.2h-7.94v1.47h7.94zm0 3.89h-7.94v1.47h7.94z" />
	</g>
</svg>
